<?xml version="1.0" encoding="utf-8"?>
<!-- Generator: Adobe Illustrator 19.2.1, SVG Export Plug-In . SVG Version: 6.00 Build 0)  -->
<!DOCTYPE svg PUBLIC "-//W3C//DTD SVG 1.1//EN" "http://www.w3.org/Graphics/SVG/1.1/DTD/svg11.dtd">
<svg version="1.1" id="Layer_1" xmlns="http://www.w3.org/2000/svg" xmlns:xlink="http://www.w3.org/1999/xlink" x="0px" y="0px"
	 viewBox="0 0 350 60" enable-background="new 0 0 350 60" xml:space="preserve">
<g>
	<g>
		<path fill="#FFFFFF" d="M27.2,19.1l-10.9,0v-6.4h29.3v6.4l-10.8,0v28h-7.6V19.1z"/>
		<path fill="#FFFFFF" d="M82.1,29.8c0,2.5-0.5,4.8-1.4,6.9c-0.9,2.2-2.2,4-3.8,5.6c-1.6,1.6-3.5,2.9-5.7,3.8
			c-2.2,0.9-4.5,1.4-6.9,1.4c-2.5,0-4.8-0.5-6.9-1.4c-2.2-0.9-4-2.2-5.6-3.8c-1.6-1.6-2.9-3.5-3.8-5.6c-0.9-2.1-1.4-4.5-1.4-6.9
			c0-2.5,0.5-4.8,1.4-7c0.9-2.2,2.2-4.1,3.8-5.7c1.6-1.6,3.5-2.9,5.6-3.8c2.1-0.9,4.5-1.4,6.9-1.4c2.4,0,4.7,0.5,6.9,1.4
			c2.2,0.9,4.1,2.2,5.7,3.8c1.6,1.6,2.9,3.5,3.8,5.7C81.6,25,82.1,27.4,82.1,29.8z M64.3,19.3c-1.4,0-2.8,0.3-4.1,0.8
			c-1.3,0.6-2.4,1.3-3.3,2.3c-0.9,1-1.7,2.1-2.3,3.3c-0.6,1.3-0.8,2.6-0.8,4.1c0,1.4,0.3,2.8,0.8,4.1c0.6,1.3,1.3,2.4,2.3,3.3
			c0.9,0.9,2.1,1.7,3.3,2.3c1.3,0.6,2.6,0.8,4.1,0.8c1.4,0,2.8-0.3,4-0.8c1.3-0.6,2.4-1.3,3.3-2.3c0.9-0.9,1.7-2.1,2.2-3.3
			c0.5-1.3,0.8-2.6,0.8-4.1c0-1.4-0.3-2.8-0.8-4.1c-0.5-1.3-1.3-2.4-2.2-3.3c-0.9-1-2-1.7-3.3-2.3C67.1,19.6,65.7,19.3,64.3,19.3z"
			/>
		<path fill="#FFFFFF" d="M86.4,12.8h15.5c2.1,0,4,0.3,5.5,0.9c1.5,0.6,2.7,1.5,3.7,2.5c0.9,1,1.6,2.2,2.1,3.5
			c0.4,1.3,0.6,2.7,0.6,4.1c0,1.4-0.2,2.8-0.6,4.1c-0.4,1.3-1.1,2.5-2.1,3.5c-0.9,1-2.2,1.9-3.7,2.5c-1.5,0.6-3.3,0.9-5.5,0.9H94
			v12.3h-7.6V12.8z M94,29h5.9c0.9,0,1.7-0.1,2.5-0.2c0.8-0.1,1.5-0.4,2.1-0.7c0.6-0.4,1.1-0.9,1.5-1.6c0.4-0.7,0.6-1.6,0.6-2.6
			c0-1.1-0.2-2-0.6-2.6c-0.4-0.7-0.9-1.2-1.5-1.6c-0.6-0.4-1.3-0.6-2.1-0.7c-0.8-0.1-1.6-0.2-2.5-0.2H94V29z"/>
	</g>
	<g>
		<path fill="#FFFFFF" d="M136.9,20.1c0,1.1-0.2,2.2-0.6,3.1c-0.4,1-1,1.8-1.7,2.5c-0.7,0.7-1.6,1.3-2.6,1.7c-1,0.4-2,0.6-3.1,0.6
			c-1.1,0-2.2-0.2-3.1-0.6c-1-0.4-1.8-1-2.5-1.7c-0.7-0.7-1.3-1.6-1.7-2.5c-0.4-1-0.6-2-0.6-3.1c0-1.1,0.2-2.2,0.6-3.1
			c0.4-1,1-1.8,1.7-2.6c0.7-0.7,1.6-1.3,2.5-1.7c1-0.4,2-0.6,3.1-0.6c1.1,0,2.1,0.2,3.1,0.6c1,0.4,1.8,1,2.6,1.7
			c0.7,0.7,1.3,1.6,1.7,2.6C136.7,17.9,136.9,18.9,136.9,20.1z M128.9,15.3c-0.7,0-1.3,0.1-1.8,0.4c-0.6,0.3-1.1,0.6-1.5,1
			c-0.4,0.4-0.8,0.9-1,1.5c-0.3,0.6-0.4,1.2-0.4,1.8c0,0.7,0.1,1.3,0.4,1.8c0.3,0.6,0.6,1.1,1,1.5c0.4,0.4,0.9,0.8,1.5,1
			c0.6,0.3,1.2,0.4,1.8,0.4c0.7,0,1.3-0.1,1.8-0.4c0.6-0.3,1.1-0.6,1.5-1c0.4-0.4,0.8-0.9,1-1.5c0.2-0.6,0.4-1.2,0.4-1.8
			c0-0.7-0.1-1.3-0.4-1.8c-0.2-0.6-0.6-1.1-1-1.5c-0.4-0.4-0.9-0.8-1.5-1C130.2,15.4,129.6,15.3,128.9,15.3z"/>
		<path fill="#FFFFFF" d="M141.8,25v2.9l-3.3,0V12.3h11.3v2.9h-8v3.5h7.1v3h-7.1V25z"/>
	</g>
	<g>
		<path fill="#FFFFFF" d="M204.1,38c-0.7,1.4-1.6,2.6-2.7,3.8c-1.1,1.1-2.2,2.1-3.6,2.9c-1.3,0.8-2.8,1.5-4.3,1.9
			c-1.6,0.4-3.2,0.7-4.8,0.7c-2.4,0-4.7-0.5-6.8-1.4c-2.1-0.9-4-2.2-5.5-3.7c-1.6-1.6-2.8-3.4-3.7-5.5c-0.9-2.1-1.4-4.4-1.4-6.8
			c0-2.4,0.5-4.6,1.4-6.7c0.9-2.1,2.2-4,3.7-5.6c1.6-1.6,3.4-2.8,5.5-3.8c2.1-0.9,4.4-1.4,6.8-1.4c1.6,0,3.2,0.2,4.7,0.6
			c1.5,0.4,2.9,1,4.2,1.8c1.3,0.8,2.5,1.7,3.5,2.8s1.9,2.3,2.7,3.6c-0.7,0.4-1.3,0.7-1.8,0.9c-0.5,0.2-0.9,0.5-1.3,0.7
			c-0.4,0.2-0.9,0.4-1.4,0.7c-0.5,0.3-1.2,0.6-2,1c-0.8-1.5-2-2.7-3.6-3.6c-1.5-0.9-3.2-1.4-5.1-1.4c-1.4,0-2.7,0.3-4,0.8
			c-1.2,0.5-2.3,1.3-3.3,2.2c-0.9,0.9-1.7,2-2.2,3.2c-0.5,1.3-0.8,2.6-0.8,3.9c0,1.4,0.3,2.7,0.8,4c0.5,1.2,1.3,2.3,2.2,3.2
			c0.9,0.9,2,1.7,3.3,2.2c1.2,0.5,2.6,0.8,4,0.8c1.9,0,3.7-0.5,5.3-1.5c1.6-1,2.8-2.3,3.7-3.9c0.8,0.4,1.4,0.8,1.9,1
			c0.5,0.3,1,0.5,1.4,0.7c0.4,0.2,0.9,0.5,1.3,0.7C202.7,37.3,203.3,37.6,204.1,38z"/>
		<path fill="#FFFFFF" d="M236.9,34.2c0,4.7-1.3,8.1-3.9,10.4c-2.6,2.3-6.2,3.4-10.8,3.4c-4.7,0-8.3-1.1-10.8-3.4
			c-2.6-2.3-3.8-5.7-3.8-10.4V12.8h7.6v21.4c0,0.9,0.1,1.8,0.2,2.7c0.2,0.9,0.5,1.7,1,2.4c0.5,0.7,1.2,1.3,2.1,1.7
			c0.9,0.4,2.1,0.6,3.7,0.6c2.7,0,4.6-0.6,5.6-1.8c1-1.2,1.5-3.1,1.5-5.7V12.8h7.6V34.2z"/>
		<path fill="#FFFFFF" d="M262.7,34.5h0.3l8.9,12.8h-8.5l-8.7-12.4H251v12.4h-7.6V12.8h15.5c2.1,0,4,0.3,5.5,0.9
			c1.5,0.6,2.8,1.5,3.7,2.5c1,1,1.7,2.2,2.1,3.5c0.4,1.3,0.7,2.7,0.7,4.1c0,1.2-0.2,2.3-0.5,3.4c-0.3,1.1-0.8,2.2-1.5,3.2
			c-0.7,1-1.5,1.8-2.5,2.5C265.4,33.6,264.1,34.1,262.7,34.5z M256.9,18.7H251V29h5.9c0.9,0,1.7-0.1,2.6-0.2
			c0.8-0.1,1.5-0.4,2.1-0.8c0.6-0.4,1.1-0.9,1.4-1.6c0.4-0.7,0.5-1.6,0.5-2.6c0-1.1-0.2-2-0.5-2.7c-0.4-0.7-0.8-1.2-1.4-1.6
			c-0.6-0.4-1.3-0.6-2.1-0.7C258.6,18.7,257.8,18.7,256.9,18.7z"/>
		<path fill="#FFFFFF" d="M292.5,47.2H284l-11.2-34.4h7.8l7.7,24.2h0.1l7.8-24.2h7.8L292.5,47.2z"/>
		<path fill="#FFFFFF" d="M314.3,40.8h19.4v6.4H307V12.6h25.1V19h-17.8v7.8H330v6.7h-15.7V40.8z"/>
	</g>
	<g>
		<path fill="#FFFFFF" d="M125.9,34.6l-4.9,0v-2.9h13.2v2.9l-4.9,0v12.6h-3.4V34.6z"/>
		<path fill="#FFFFFF" d="M139.2,40.6v6.6h-3.3V31.7h3.3v5.6h7.2v-5.6h3.3v15.5h-3.3v-6.6H139.2z"/>
		<path fill="#FFFFFF" d="M155.2,44.4h8.8v2.9h-12.1V31.7h11.3v2.9h-8v3.5h7.1v3h-7.1V44.4z"/>
	</g>
</g>
</svg>
